<svg xmlns="http://www.w3.org/2000/svg" viewBox="0 0 640 420"><rect width="640" height="420" fill="#eef4ff"/><path d="M0 70h640M0 140h640M0 210h640M0 280h640M0 350h640M80 0v420M160 0v420M240 0v420M320 0v420M400 0v420M480 0v420M560 0v420" stroke="#2563eb" opacity=".07"/><rect x="70" y="58" width="270" height="288" rx="18" fill="#fff" stroke="#1a2b4a" stroke-width="8"/><path d="M112 95h186v176H112z" fill="#dbe8ff" stroke="#2563eb" stroke-width="7"/><path d="M142 124h126M205 124v48M166 172h78l24 66H142z" fill="none" stroke="#1a2b4a" stroke-width="8" stroke-linejoin="round"/><path d="M102 312h206" stroke="#2563eb" stroke-width="10" stroke-linecap="round"/><g fill="#fff" stroke="#1a2b4a" stroke-width="8"><circle cx="430" cy="270" r="64"/><circle cx="525" cy="170" r="52"/></g><g fill="#2563eb"><circle cx="430" cy="270" r="20"/><circle cx="525" cy="170" r="17"/></g><path d="M430 194v28M430 318v28M354 270h28M478 270h28M525 106v22M525 212v22M461 170h22M567 170h22" stroke="#1a2b4a" stroke-width="12" stroke-linecap="round"/></svg>
